<svg width="22" height="22" viewBox="0 0 22 22" fill="none" xmlns="http://www.w3.org/2000/svg">
<path d="M7.88403 9.05579L12.0906 4.85196C12.2652 4.69415 12.4937 4.6095 12.7289 4.61554C12.9642 4.62158 13.1881 4.71785 13.3543 4.88441C13.5205 5.05097 13.6163 5.27508 13.6218 5.51032C13.6274 5.74556 13.5422 5.97392 13.384 6.14813L9.1802 10.352C9.00835 10.5239 8.91181 10.757 8.91181 11C8.91181 11.2431 9.00835 11.4762 9.1802 11.6481L13.384 15.852C13.5559 16.024 13.6524 16.2572 13.6523 16.5004C13.6523 16.7435 13.5556 16.9767 13.3836 17.1486C13.2116 17.3205 12.9783 17.417 12.7352 17.4169C12.492 17.4168 12.2588 17.3201 12.087 17.1481L7.88403 12.9443C7.36849 12.4286 7.07887 11.7292 7.07887 11C7.07887 10.2708 7.36849 9.57149 7.88403 9.05579Z" fill="#747bff"/>
</svg>
