<svg id="476e64fc-5345-48fa-8f1d-b474ea90271f" data-name="глазики 30 на 30" xmlns="http://www.w3.org/2000/svg" viewBox="0 0 30 30">
  <path fill="#fff" d="M15,6.78133c-.09346,0-.18686.00058-.22413.00145a17.58978,17.58978,0,0,0-7.709,1.86029A17.94922,17.94922,0,0,0,.97026,13.63462a2.2172,2.2172,0,0,0,0,2.73069A17.94978,17.94978,0,0,0,7.06685,21.357a17.58866,17.58866,0,0,0,7.709,1.86017c.07454.002.37382.002.44836,0a17.58966,17.58966,0,0,0,7.709-1.86017,17.94965,17.94965,0,0,0,6.09659-4.99166,2.2172,2.2172,0,0,0,0-2.73069,17.94946,17.94946,0,0,0-6.09659-4.99155,17.58892,17.58892,0,0,0-7.709-1.86029C15.18691,6.78162,15.0934,6.78133,15,6.78133Zm.00011,1.17806A7.04062,7.04062,0,1,1,7.95938,15,7.04863,7.04863,0,0,1,15.00006,7.95939Zm5.48892.92693A16.6484,16.6484,0,0,1,28.0996,14.3602a1.03914,1.03914,0,0,1,0,1.27961,16.76254,16.76254,0,0,1-5.69336,4.66167,16.624,16.624,0,0,1-1.91471.80989A8.20766,8.20766,0,0,0,20.489,8.88632ZM9.51047,8.8869A8.20759,8.20759,0,0,0,9.5108,21.11328a16.63854,16.63854,0,0,1-1.91693-.81178,16.76365,16.76365,0,0,1-5.69336-4.66166,1.03907,1.03907,0,0,1,0-1.27961,16.64149,16.64149,0,0,1,7.61-5.47333ZM15.00006,11.987a3.013,3.013,0,1,0,3.013,3.0129A3.01633,3.01633,0,0,0,15.00006,11.987Zm0,1.17971a1.8333,1.8333,0,1,1-1.8333,1.83319A1.83527,1.83527,0,0,1,15.00006,13.16668Z"/>
</svg>
